<svg width="375" height="129" viewBox="0 0 375 129" fill="none" xmlns="http://www.w3.org/2000/svg">
<path d="M117.5 33.185C117.5 59.4186 88 71.6854 49 50.6854C22 60.1854 0 81.9189 0 55.6854C0 29.4519 27.2061 0.685377 62 0.685377C92 -2.81463 117.5 6.9515 117.5 33.185Z" fill="#292841"/>
<path d="M116.5 94.6854C116.5 121.471 104.242 128.185 69.9999 128.185C46.1891 128.185 29.5171 123.294 16.9999 108.185C11.5164 101.567 0.49979 84.6597 0.49979 76.5C0.999756 70 -3.42869 84.1711 19.9999 76.6854C26.3883 74.6443 34.4999 62.6854 42.9999 60.1854C47.9999 60.1854 55.7696 62.6854 61.9999 69.1854C66.4999 76.6854 89.9999 68.5 89.9999 69.1854C104 66 116.5 82.578 116.5 94.6854Z" fill="#999FD4"/>
<path d="M163.401 87.1539C159.039 87.1539 155.268 87.1539 152.087 87.1539C148.906 87.1539 146.238 87.1539 144.082 87.1539C141.979 87.1539 140.209 87.1026 138.772 87V55.1363C138.772 53.6483 139.08 52.699 139.695 52.2885C140.362 51.8268 141.26 51.5959 142.389 51.5959C144.236 51.5959 145.853 51.5959 147.238 51.5959C148.623 51.5446 149.855 51.5189 150.932 51.5189C152.01 51.4676 153.036 51.4419 154.011 51.4419C154.986 51.4419 156.038 51.4419 157.167 51.4419C158.501 51.4419 159.937 51.4676 161.477 51.5189C163.067 51.5189 164.53 51.5189 165.864 51.5189C167.249 51.5189 168.275 51.5446 168.942 51.5959C171.816 51.8011 173.945 52.5964 175.33 53.9818C176.716 55.3672 177.409 57.4452 177.409 60.216C177.409 62.2684 177.075 63.8847 176.408 65.0648C175.741 66.1937 174.894 67.0146 173.868 67.5277C172.842 68.0408 171.841 68.323 170.866 68.3743C172.047 68.3743 173.124 68.5026 174.099 68.7592C175.074 68.9644 175.895 69.3749 176.562 69.9906C177.229 70.555 177.768 71.4017 178.178 72.5305C178.589 73.6593 178.794 75.1217 178.794 76.9175C178.794 79.2265 178.435 81.0737 177.716 82.459C177.049 83.7931 176.049 84.8193 174.715 85.5377C173.432 86.2047 171.841 86.6408 169.943 86.8461C168.044 87.0513 165.864 87.1539 163.401 87.1539ZM160.245 82.1512C161.374 82.1512 162.426 82.1255 163.401 82.0742C164.427 81.9716 165.299 81.7663 166.018 81.4585C166.787 81.1506 167.377 80.6119 167.788 79.8422C168.25 79.0212 168.481 77.9181 168.481 76.5327C168.481 74.4803 168.044 73.0692 167.172 72.2996C166.351 71.5299 164.632 71.1451 162.015 71.1451H150.855C149.983 71.1451 149.419 70.7603 149.162 69.9906C148.957 69.1697 148.854 67.9895 148.854 66.4502H161.708C162.682 66.4502 163.58 66.3219 164.401 66.0654C165.222 65.8088 165.864 65.2957 166.326 64.5261C166.839 63.7051 167.095 62.4993 167.095 60.9087C167.095 59.3181 166.762 58.1123 166.095 57.2913C165.428 56.4703 164.35 56.0342 162.862 55.9829C162.092 55.9316 161.22 55.9059 160.245 55.9059C159.27 55.8546 158.295 55.829 157.321 55.829C156.14 55.829 155.012 55.829 153.934 55.829C152.857 55.829 151.907 55.8546 151.086 55.9059C150.471 55.9059 149.958 56.0855 149.547 56.4447C149.188 56.7526 149.008 57.2913 149.008 58.061V82.0742C149.675 82.0742 150.265 82.0999 150.778 82.1512C151.292 82.1512 151.882 82.1512 152.549 82.1512C153.267 82.1512 154.216 82.1512 155.396 82.1512C156.577 82.1512 158.193 82.1512 160.245 82.1512ZM204.187 56.2908V76.5327C204.187 78.6364 204.726 80.1244 205.803 80.9967C206.932 81.8177 208.677 82.2281 211.037 82.2281C213.551 82.2281 215.321 81.792 216.348 80.9197C217.425 79.9961 217.964 78.5594 217.964 76.6097V56.2908C218.015 56.2908 218.272 56.2908 218.734 56.2908C219.247 56.2908 219.811 56.2908 220.427 56.2908C221.094 56.2394 221.684 56.2138 222.197 56.2138C222.761 56.2138 223.121 56.2138 223.275 56.2138C224.249 56.2138 225.019 56.2908 225.584 56.4447C226.199 56.5473 226.635 56.8295 226.892 57.2913C227.149 57.7018 227.277 58.4458 227.277 59.5233V75.3782C227.277 78.3029 226.841 80.6632 225.968 82.459C225.096 84.2036 223.48 85.4863 221.12 86.3073C218.759 87.077 215.321 87.4618 210.806 87.4618C206.701 87.4618 203.469 87.1283 201.109 86.4612C198.8 85.7942 197.158 84.6397 196.183 82.9978C195.259 81.3559 194.797 79.0469 194.797 76.0709V59.5233C194.797 58.2406 195.003 57.3683 195.413 56.9065C195.875 56.4447 196.824 56.2138 198.261 56.2138C199.236 56.2138 200.211 56.2394 201.185 56.2908C202.16 56.2908 203.161 56.2908 204.187 56.2908ZM242.58 71.6069C242.58 67.3994 243.17 64.1669 244.351 61.9092C245.531 59.6516 247.224 58.1123 249.43 57.2913C251.688 56.419 254.356 55.9829 257.435 55.9829C258.358 55.9829 259.41 56.0342 260.59 56.1368C261.822 56.2394 263.002 56.3934 264.131 56.5986C265.259 56.7526 266.26 56.9578 267.132 57.2143C268.005 57.4196 268.646 57.6505 269.056 57.907L266.747 58.9076V48.1324H275.983L275.906 71.5299C275.906 75.019 275.624 77.8154 275.06 79.9192C274.495 81.9716 273.546 83.5366 272.212 84.6141C270.929 85.6403 269.159 86.333 266.901 86.6921C264.695 87 261.924 87.1539 258.589 87.1539C255.562 87.1539 252.996 86.9487 250.893 86.5382C248.84 86.1277 247.198 85.3837 245.967 84.3062C244.787 83.2287 243.914 81.6637 243.35 79.6113C242.837 77.5589 242.58 74.8908 242.58 71.6069ZM258.82 82.2281C260.513 82.2281 261.873 82.0999 262.899 81.8433C263.977 81.5354 264.772 81.048 265.285 80.381C265.85 79.7139 266.234 78.7647 266.44 77.5332C266.645 76.2505 266.747 74.6342 266.747 72.6844L266.671 61.6783C266.26 61.627 265.696 61.6014 264.977 61.6014C264.259 61.5501 263.515 61.4988 262.745 61.4474C261.976 61.3961 261.257 61.3705 260.59 61.3705C258.435 61.3705 256.716 61.6527 255.434 62.2171C254.202 62.7302 253.304 63.7308 252.74 65.2188C252.227 66.7068 251.97 68.8874 251.97 71.7608C251.97 74.7368 252.175 76.9688 252.586 78.4568C253.048 79.9448 253.792 80.9454 254.818 81.4585C255.844 81.9716 257.178 82.2281 258.82 82.2281ZM290.9 71.6069C290.9 67.3994 291.49 64.1669 292.67 61.9092C293.851 59.6516 295.544 58.1123 297.75 57.2913C300.008 56.419 302.676 55.9829 305.755 55.9829C306.678 55.9829 307.73 56.0342 308.91 56.1368C310.142 56.2394 311.322 56.3934 312.451 56.5986C313.579 56.7526 314.58 56.9578 315.452 57.2143C316.324 57.4196 316.966 57.6505 317.376 57.907L315.067 58.9076V48.1324H324.303L324.226 71.5299C324.226 75.019 323.944 77.8154 323.38 79.9192C322.815 81.9716 321.866 83.5366 320.532 84.6141C319.249 85.6403 317.479 86.333 315.221 86.6921C313.015 87 310.244 87.1539 306.909 87.1539C303.882 87.1539 301.316 86.9487 299.212 86.5382C297.16 86.1277 295.518 85.3837 294.287 84.3062C293.107 83.2287 292.234 81.6637 291.67 79.6113C291.157 77.5589 290.9 74.8908 290.9 71.6069ZM307.14 82.2281C308.833 82.2281 310.193 82.0999 311.219 81.8433C312.297 81.5354 313.092 81.048 313.605 80.381C314.169 79.7139 314.554 78.7647 314.76 77.5332C314.965 76.2505 315.067 74.6342 315.067 72.6844L314.99 61.6783C314.58 61.627 314.016 61.6014 313.297 61.6014C312.579 61.5501 311.835 61.4988 311.065 61.4474C310.296 61.3961 309.577 61.3705 308.91 61.3705C306.755 61.3705 305.036 61.6527 303.753 62.2171C302.522 62.7302 301.624 63.7308 301.06 65.2188C300.547 66.7068 300.29 68.8874 300.29 71.7608C300.29 74.7368 300.495 76.9688 300.906 78.4568C301.368 79.9448 302.112 80.9454 303.138 81.4585C304.164 81.9716 305.498 82.2281 307.14 82.2281ZM355.229 95.5432C352.51 95.5432 349.97 95.4149 347.609 95.1583C345.3 94.9018 343.428 94.4913 341.991 93.9269C340.554 93.4138 339.836 92.7468 339.836 91.9258V89.155C340.657 89.6168 341.786 90.0017 343.222 90.3095C344.659 90.6174 346.198 90.8483 347.84 91.0022C349.482 91.2074 351.022 91.3101 352.458 91.3101C354.921 91.3101 356.871 91.0022 358.308 90.3865C359.796 89.8221 360.847 88.8985 361.463 87.6157C362.13 86.333 362.464 84.691 362.464 82.6899V79.3034C361.951 80.3297 361.207 81.1506 360.232 81.7663C359.257 82.3821 358.025 82.8439 356.537 83.1517C355.049 83.4083 353.254 83.5366 351.15 83.5366C347.712 83.5366 345.146 83.0234 343.453 81.9972C341.811 80.9197 340.734 79.4317 340.221 77.5332C339.708 75.6348 339.451 73.4284 339.451 70.9142V59.9081C339.451 59.1385 339.502 58.4971 339.605 57.984C339.759 57.4196 340.067 57.0091 340.529 56.7526C340.99 56.4447 341.734 56.2908 342.761 56.2908H348.995C348.995 57.6248 348.995 58.8306 348.995 59.9081C348.995 60.9343 348.995 61.9349 348.995 62.9098C348.995 63.8334 348.995 64.8339 348.995 65.9114C348.995 66.9377 348.995 68.1178 348.995 69.4519C348.995 72.3766 349.251 74.5316 349.764 75.917C350.329 77.251 351.098 78.0977 352.073 78.4568C353.1 78.816 354.305 78.9956 355.691 78.9956C357.076 78.9956 358.256 78.7903 359.231 78.3799C360.206 77.9181 360.95 77.0458 361.463 75.763C362.028 74.4803 362.31 72.5305 362.31 69.9137V56.2908H368.698C369.775 56.2908 370.571 56.4703 371.084 56.8295C371.597 57.1374 371.854 57.9583 371.854 59.2924V81.9972C371.854 86.6152 370.545 90.0273 367.928 92.2337C365.363 94.44 361.13 95.5432 355.229 95.5432Z" fill="black"/>
</svg>
